HIERARCHY
ROOT root
{
	OFFSET 0.00 0.00 0.00
	CHANNELS 6 Xposition Yposition Zposition Zrotation Xrotation Yrotation
	JOINT lowerback
	{
		OFFSET 0 0 0
		CHANNELS 6 Xposition Yposition Zposition Zrotation Xrotation Yrotation
		JOINT upperback
		{
			OFFSET -0.214371 12.3768 -1.12219
			CHANNELS 6 Xposition Yposition Zposition Zrotation Xrotation Yrotation
			JOINT thorax
			{
				OFFSET -0.00137213 12.3873 0.296195
				CHANNELS 6 Xposition Yposition Zposition Zrotation Xrotation Yrotation
				JOINT lowerneck
				{
					OFFSET 0.0883157 12.5016 0.82912
					CHANNELS 6 Xposition Yposition Zposition Zrotation Xrotation Yrotation
					JOINT upperneck
					{
						OFFSET -1 10.1794 0.943522
						CHANNELS 6 Xposition Yposition Zposition Zrotation Xrotation Yrotation
						JOINT head
						{
							OFFSET 0.667525 10.2797 -1.57149
							CHANNELS 6 Xposition Yposition Zposition Zrotation Xrotation Yrotation
							End Site
							{
								OFFSET 0 0 0
							}
						}
					}
				}
				JOINT lclavicle
				{
					OFFSET 0.0883157 12.5016 0.82912
					CHANNELS 6 Xposition Yposition Zposition Zrotation Xrotation Yrotation
					JOINT lhumerus
					{
						OFFSET 20.61 4.45006 1.43784
						CHANNELS 6 Xposition Yposition Zposition Zrotation Xrotation Yrotation
						JOINT lradius
						{
							OFFSET 0 -30.3438 0
							CHANNELS 6 Xposition Yposition Zposition Zrotation Xrotation Yrotation
							JOINT lwrist
							{
								OFFSET 0 -18.964 0
								CHANNELS 6 Xposition Yposition Zposition Zrotation Xrotation Yrotation
								JOINT lhand
								{
									OFFSET 0 -9.48199 0
									CHANNELS 6 Xposition Yposition Zposition Zrotation Xrotation Yrotation
									JOINT lfingers
									{
										OFFSET 0 -3.17138 0
										CHANNELS 6 Xposition Yposition Zposition Zrotation Xrotation Yrotation
										End Site
										{
											OFFSET 0 -2.55685 0
										}
									}
								}
								JOINT lthumb
								{
									OFFSET 0 -9.48199 0
									CHANNELS 6 Xposition Yposition Zposition Zrotation Xrotation Yrotation
									End Site
									{
										OFFSET 0 -3.67114 0
									}
								}
							}
						}
					}
				}
				JOINT rclavicle
				{
					OFFSET 0.0883157 12.5016 0.82912
					CHANNELS 6 Xposition Yposition Zposition Zrotation Xrotation Yrotation
					JOINT rhumerus
					{
						OFFSET -20.61 4.45 1.44
						CHANNELS 6 Xposition Yposition Zposition Zrotation Xrotation Yrotation
						JOINT rradius
						{
							OFFSET 0 -29.5102 0
							CHANNELS 6 Xposition Yposition Zposition Zrotation Xrotation Yrotation
							JOINT rwrist
							{
								OFFSET 0 -19.2342 0
								CHANNELS 6 Xposition Yposition Zposition Zrotation Xrotation Yrotation
								JOINT rhand
								{
									OFFSET 0 -9.61712 0
									CHANNELS 6 Xposition Yposition Zposition Zrotation Xrotation Yrotation
									JOINT rfingers
									{
										OFFSET 0 -3.29215 0
										CHANNELS 6 Xposition Yposition Zposition Zrotation Xrotation Yrotation
										End Site
										{
											OFFSET 0 -2.557 0
										}
									}
								}
								JOINT rthumb
								{
									OFFSET 0 -9.61712 0
									CHANNELS 6 Xposition Yposition Zposition Zrotation Xrotation Yrotation
									End Site
									{
										OFFSET 0 -3.671 0
									}
								}
							}
						}
					}
				}
			}
		}
	}
	JOINT rfemur
	{
		OFFSET -8.46272 -9.62775 4.76248
		CHANNELS 6 Xposition Yposition Zposition Zrotation Xrotation Yrotation
		JOINT rtibia
		{
			OFFSET 1.00552e-005 -38.0331 0
			CHANNELS 6 Xposition Yposition Zposition Zrotation Xrotation Yrotation
			JOINT rfoot
			{
				OFFSET 1.14428e-005 -43.2815 0
				CHANNELS 6 Xposition Yposition Zposition Zrotation Xrotation Yrotation
				JOINT rtoes
				{
					OFFSET 0 -14.1868 -3.08763
					CHANNELS 6 Xposition Yposition Zposition Zrotation Xrotation Yrotation
					End Site
					{
						OFFSET 0 -7.27332 0
					}
				}
			}
		}
	}
	JOINT lfemur
	{
		OFFSET 9.10607 -9.62778 4.76249
		CHANNELS 6 Xposition Yposition Zposition Zrotation Xrotation Yrotation
		JOINT ltibia
		{
			OFFSET -1.01399e-005 -38.3535 0
			CHANNELS 6 Xposition Yposition Zposition Zrotation Xrotation Yrotation
			JOINT lfoot
			{
				OFFSET -1.12937e-005 -42.7176 0
				CHANNELS 6 Xposition Yposition Zposition Zrotation Xrotation Yrotation
				JOINT ltoes
				{
					OFFSET 0 -13.9965 -2.83857
					CHANNELS 6 Xposition Yposition Zposition Zrotation Xrotation Yrotation
					End Site
					{
						OFFSET 0 -7.16348 0
					}
				}
			}
		}
	}
}
MOTION
Frames: 5
Frame Time: 0.00833333
8.53722	97.0387	13.7164	1.32868	-2.19412	-5.14168	0 0 0 -6.17158	5.99359	-3.2248	-0.214371 12.3768 -1.12219 -0.173102	-3.01391	-4.87593	-0.00137213 12.3873 0.296195 4.02334	-5.9916	-2.15631	0.0883157 12.5016 0.82912 1.62407	-10.2221	3.3843	-1 10.1794 0.943522 6.34791	-2.42288	4.0268	0.667525 10.2797 -1.57149 1.89498	0.856834	2.024	0.0883157 12.5016 0.82912 -15	0	-0	20.61 4.45006 1.43784 21.1776	1.24177	-179.662	0 -30.3438 0 -0	47.7313	-0	0 -18.964 0 1.38463e-014	-1.60954e-015	-103.261	0 -9.48199 0 1.22245	4.37968	-2.58917e-014	0 -3.17138 0 -0	7.12502	-0	0 -9.48199 0 25	15	-1.36605e-015	0.0883157 12.5016 0.82912 15	0	-0	-20.61 4.45 1.44 -21.5597	20.9176	170.495	0 -29.5102 0 -0	28.6581	-0	0 -19.2342 0 5.57651e-016	-2.74131e-015	112.997	0 -9.61712 0 1.22	4.38	-0	0 -3.29215 0 -0	7.12502	-0	0 -9.61712 0 25	15	-7.97034e-015	-8.46272 -9.62775 4.76248 -5.76786	-36.7905	-9.9875	1.00552e-005 -38.0331 0 -0	60.5413	-0	1.14428e-005 -43.2815 0 6.45909	-73.2561	6.74239	0 -14.1868 -3.08763 -0	-48.2259	-0	9.10607 -9.62778 4.76249 -9.01629	16.9913	11.4791	-1.01399e-005 -38.3535 0 -0	4.13505	-0	-1.12937e-005 -42.7176 0 31.9743	-72.8109	33.1623	0 -13.9965 -2.83857 -0	-32.7956	-0
8.58146	96.8807	14.0333	1.47191	-2.18145	-5.23502	0 0 0 -6.30376	5.98277	-3.22342	-0.214371 12.3768 -1.12219 -0.188026	-3.02017	-4.88637	-0.00137213 12.3873 0.296195 4.08243	-5.98218	-2.15592	0.0883157 12.5016 0.82912 1.8821	-10.2147	3.63985	-1 10.1794 0.943522 6.14933	-2.16353	4.33347	0.667525 10.2797 -1.57149 1.80632	0.937405	2.18247	0.0883157 12.5016 0.82912 -15	0	-0	20.61 4.45006 1.43784 21.5199	0.818665	179.984	0 -30.3438 0 -0	48.8521	-0	0 -18.964 0 1.3856e-014	-1.56791e-015	-102.912	0 -9.48199 0 1.22245	4.37968	-2.58917e-014	0 -3.17138 0 -0	7.12502	-0	0 -9.48199 0 25	15	-1.36605e-015	0.0883157 12.5016 0.82912 15	0	-0	-20.61 4.45 1.44 -21.7841	20.953	170.196	0 -29.5102 0 -0	28.6032	-0	0 -19.2342 0 5.56933e-016	-2.73962e-015	112.982	0 -9.61712 0 1.22	4.38	-0	0 -3.29215 0 -0	7.12502	-0	0 -9.61712 0 25	15	-7.97034e-015	-8.46272 -9.62775 4.76248 -5.56015	-37.0674	-9.69203	1.00552e-005 -38.0331 0 -0	59.6701	-0	1.14428e-005 -43.2815 0 7.21197	-73.1389	7.5322	0 -14.1868 -3.08763 -0	-48.2117	-0	9.10607 -9.62778 4.76249 -9.37029	17.741	11.7868	-1.01399e-005 -38.3535 0 -0	3.10655	-0	-1.12937e-005 -42.7176 0 31.4555	-72.7862	32.6367	0 -13.9965 -2.83857 -0	-32.838	-0
8.62017	96.7192	14.3521	1.61432	-2.15993	-5.3007	0 0 0 -6.43945	5.96898	-3.22843	-0.214371 12.3768 -1.12219 -0.198261	-3.02931	-4.90531	-0.00137213 12.3873 0.296195 4.14952	-5.97234	-2.1603	0.0883157 12.5016 0.82912 2.15639	-10.1863	3.91158	-1 10.1794 0.943522 5.93922	-1.89271	4.66142	0.667525 10.2797 -1.57149 1.71302	1.01955	2.35158	0.0883157 12.5016 0.82912 -15	0	-0	20.61 4.45006 1.43784 21.8243	0.386011	179.679	0 -30.3438 0 -0	49.9051	-0	0 -18.964 0 1.38648e-014	-1.52909e-015	-102.587	0 -9.48199 0 1.22245	4.37968	-2.58917e-014	0 -3.17138 0 -0	7.12502	-0	0 -9.48199 0 25	15	-1.36605e-015	0.0883157 12.5016 0.82912 15	0	-0	-20.61 4.45 1.44 -22.009	20.9777	169.902	0 -29.5102 0 -0	28.5514	-0	0 -19.2342 0 5.57842e-016	-2.74176e-015	113.001	0 -9.61712 0 1.22	4.38	-0	0 -3.29215 0 -0	7.12502	-0	0 -9.61712 0 25	15	-7.97034e-015	-8.46272 -9.62775 4.76248 -5.35455	-37.3213	-9.38376	1.00552e-005 -38.0331 0 -0	58.7718	-0	1.14428e-005 -43.2815 0 7.95006	-72.9925	8.30858	0 -14.1868 -3.08763 -0	-48.1613	-0	9.10607 -9.62778 4.76249 -9.70065	18.4232	12.0813	-1.01399e-005 -38.3535 0 -0	2.18713	-0	-1.12937e-005 -42.7176 0 30.8969	-72.8043	32.064	0 -13.9965 -2.83857 -0	-32.9255	-0
8.6504	96.5606	14.6747	1.75614	-2.13092	-5.33498	0 0 0 -6.57887	5.95242	-3.24015	-0.214371 12.3768 -1.12219 -0.204383	-3.04216	-4.93333	-0.00137213 12.3873 0.296195 4.22443	-5.96302	-2.16881	0.0883157 12.5016 0.82912 2.44545	-10.1352	4.19721	-1 10.1794 0.943522 5.71862	-1.61276	5.00811	0.667525 10.2797 -1.57149 1.6155	1.10248	2.53001	0.0883157 12.5016 0.82912 -15	0	-0	20.61 4.45006 1.43784 22.0873	-0.0550661	179.418	0 -30.3438 0 -0	50.8757	-0	0 -18.964 0 1.38725e-014	-1.49405e-015	-102.294	0 -9.48199 0 1.22245	4.37968	-2.58917e-014	0 -3.17138 0 -0	7.12502	-0	0 -9.48199 0 25	15	-1.36605e-015	0.0883157 12.5016 0.82912 15	0	-0	-20.61 4.45 1.44 -22.227	20.9927	169.59	0 -29.5102 0 -0	28.4952	-0	0 -19.2342 0 5.60381e-016	-2.74773e-015	113.054	0 -9.61712 0 1.22	4.38	-0	0 -3.29215 0 -0	7.12502	-0	0 -9.61712 0 25	15	-7.97034e-015	-8.46272 -9.62775 4.76248 -5.15385	-37.545	-9.06476	1.00552e-005 -38.0331 0 -0	57.8463	-0	1.14428e-005 -43.2815 0 8.67197	-72.822	9.07019	0 -14.1868 -3.08763 -0	-48.0771	-0	9.10607 -9.62778 4.76249 -10.0015	19.0277	12.3499	-1.01399e-005 -38.3535 0 -0	1.39949	-0	-1.12937e-005 -42.7176 0 30.3138	-72.8625	31.4604	0 -13.9965 -2.83857 -0	-33.061	-0
8.67032	96.4082	15.0031	1.89713	-2.09635	-5.33566	0 0 0 -6.72104	5.93326	-3.25829	-0.214371 12.3768 -1.12219 -0.207077	-3.05918	-4.97	-0.00137213 12.3873 0.296195 4.30588	-5.95497	-2.18125	0.0883157 12.5016 0.82912 2.74717	-10.0606	4.49373	-1 10.1794 0.943522 5.48887	-1.32606	5.37004	0.667525 10.2797 -1.57149 1.51435	1.18558	2.71597	0.0883157 12.5016 0.82912 -15	0	-0	20.61 4.45006 1.43784 22.3061	-0.503078	179.194	0 -30.3438 0 -0	51.7497	-0	0 -18.964 0 1.38791e-014	-1.46329e-015	-102.037	0 -9.48199 0 1.22245	4.37968	-2.58917e-014	0 -3.17138 0 -0	7.12502	-0	0 -9.48199 0 25	15	-1.36605e-015	0.0883157 12.5016 0.82912 15	0	-0	-20.61 4.45 1.44 -22.4309	20.9995	169.243	0 -29.5102 0 -0	28.4274	-0	0 -19.2342 0 5.64272e-016	-2.75686e-015	113.135	0 -9.61712 0 1.22	4.38	-0	0 -3.29215 0 -0	7.12502	-0	0 -9.61712 0 25	15	-7.97034e-015	-8.46272 -9.62775 4.76248 -4.95966	-37.7307	-8.73565	1.00552e-005 -38.0331 0 -0	56.8929	-0	1.14428e-005 -43.2815 0 9.37014	-72.6353	9.80898	0 -14.1868 -3.08763 -0	-47.9613	-0	9.10607 -9.62778 4.76249 -10.2678	19.5495	12.5826	-1.01399e-005 -38.3535 0 -0	0.75818	-0	-1.12937e-005 -42.7176 0 29.7165	-72.9557	30.8373	0 -13.9965 -2.83857 -0	-33.2461	-0
